<svg xmlns="http://www.w3.org/2000/svg" viewBox="-114.5 109.2 225.7 592">
  <path d="M7 672.4 Q7 667.4 11.9 667.4 L29.8 667.4 Q38.7 667.4 45.5 673.2 L48.3 675.6 Q56.6 682.7 54.6 688.9 L54.6 688.9 Q52.6 695.2 43.7 695.2 L10.9 695.2 Q7 695.2 7 691.2 Z" fill="#26262b" data-role="shoes" data-lod="0"/>
  <path d="M-7 672.4 Q-7 667.4 -11.9 667.4 L-29.8 667.4 Q-38.7 667.4 -45.5 673.2 L-48.3 675.6 Q-56.6 682.7 -54.6 688.9 L-54.6 688.9 Q-52.6 695.2 -43.7 695.2 L-10.9 695.2 Q-7 695.2 -7 691.2 Z" fill="#26262b" data-role="shoes" data-lod="0"/>
  <rect x="-57.6" y="470.8" width="115.2" height="29.8" rx="6" fill="#a8914d" data-role="pants" data-lod="0"/>
  <path d="M6.1 488.6 Q6 482.7 11.9 482.7 L45.7 482.7 Q51.6 482.7 51.5 488.6 L47.8 665.4 Q47.7 671.4 41.7 671.4 L15.9 671.4 Q9.9 671.4 9.8 665.4 Z" fill="#a8914d" data-role="pants" data-lod="0"/>
  <path d="M-6.1 488.6 Q-6 482.7 -11.9 482.7 L-45.7 482.7 Q-51.6 482.7 -51.5 488.6 L-47.8 665.4 Q-47.7 671.4 -41.7 671.4 L-15.9 671.4 Q-9.9 671.4 -9.8 665.4 Z" fill="#a8914d" data-role="pants" data-lod="0"/>
  <rect x="-16.9" y="313.8" width="33.8" height="37.7" fill="#b27545" data-role="skin_dark" data-lod="0"/>
  <path d="M-37.5 333.3 Q-31.8 331.7 -25.8 331.7 L25.8 331.7 Q31.8 331.7 37.5 333.3 L50.3 336.9 Q67.5 341.6 69.5 354.6 L69.5 354.6 Q71.5 367.5 71.1 381.4 L67.8 484.7 Q67.5 492.6 59.6 492.6 L-59.6 492.6 Q-67.5 492.6 -67.8 484.7 L-71.1 381.4 Q-71.5 367.5 -69.5 354.6 L-69.5 354.6 Q-67.5 341.6 -50.3 336.9 Z" fill="#c9ab5f" data-role="shirt" data-lod="0"/>
  <path d="M-32.7 332.5 Q-33.8 329.7 -30.8 329.7 L-16.9 329.7 Q-13.9 329.7 -12.7 332.5 L-1.2 358.8 Q0 361.5 -2.9 360.8 L-20.9 356.3 Q-23.8 355.5 -24.9 352.8 Z M32.7 332.5 Q33.8 329.7 30.8 329.7 L16.9 329.7 Q13.9 329.7 12.7 332.5 L1.2 358.8 Q0 361.5 2.9 360.8 L20.9 356.3 Q23.8 355.5 24.9 352.8 Z" fill="#d3bd84" data-role="shirt_light" data-lod="1"/>
  <path d="M13.9 431 Q13.9 435 17.9 435 L47.7 435 Q51.6 435 51.6 431 L51.6 397.3 Q51.6 393.3 47.7 393.3 L17.9 393.3 Q13.9 393.3 13.9 397.3 Z M-13.9 431 Q-13.9 435 -17.9 435 L-47.7 435 Q-51.6 435 -51.6 431 L-51.6 397.3 Q-51.6 393.3 -47.7 393.3 L-17.9 393.3 Q-13.9 393.3 -13.9 397.3 Z" fill="#bb973b" data-role="shirt_dark" data-lod="1"/>
  <path d="M-29.6 401.2 C-29.6 399.5 -31 398.1 -32.8 398.1 C-34.5 398.1 -36 399.5 -36 401.2 C-36 403 -34.5 404.4 -32.8 404.4 C-31 404.4 -29.6 403 -29.6 401.2 Z M36 401.2 C36 399.5 34.5 398.1 32.8 398.1 C31 398.1 29.6 399.5 29.6 401.2 C29.6 403 31 404.4 32.8 404.4 C34.5 404.4 36 403 36 401.2 Z" fill="#efe3b8" data-lod="1"/>
  <rect x="-49.7" y="376.4" width="25.8" height="8.9" rx="2" fill="#e8b93a" data-lod="1"/>
  <path d="M36.7 334.5 Q35.8 331.7 38.6 332.5 L60.7 338.8 Q63.6 339.7 64.1 342.6 L65.1 348.6 Q65.5 351.6 62.7 350.7 L42.6 344.5 Q39.7 343.6 38.8 340.8 Z M-36.7 334.5 Q-35.8 331.7 -38.6 332.5 L-60.7 338.8 Q-63.6 339.7 -64.1 342.6 L-65.1 348.6 Q-65.5 351.6 -62.7 350.7 L-42.6 344.5 Q-39.7 343.6 -38.8 340.8 Z" fill="#bb973b" data-role="shirt_dark" data-lod="1"/>
  <rect x="-69.5" y="474.7" width="139" height="23.8" rx="3" fill="#26262b" data-lod="0"/>
  <rect x="-12.9" y="472.7" width="25.8" height="27.8" rx="4" fill="#e8b93a" data-lod="0"/>
  <path d="M-82.9 421.6 L-94.4 600.2 C-94.6 604.1 -97.9 607 -101.7 606.8 C-105.5 606.6 -108.5 603.3 -108.2 599.5 L-99.8 420.6 C-99.5 416 -95.6 412.4 -90.9 412.7 C-86.2 412.9 -82.7 416.9 -82.9 421.6 Z" fill="#8a5a36" data-lod="0"/>
  <path d="M81 343.5 L91 405.4 C93.1 416.2 86.1 426.6 75.3 428.7 C64.5 430.8 54.1 423.7 52 413 L38.1 351.8 C35.8 339.9 43.6 328.4 55.4 326.2 C67.3 323.9 78.7 331.6 81 343.5 Z" fill="#c9ab5f" data-role="shirt" data-lod="0"/>
  <path d="M86 399.7 L95.5 450 C97.1 456.6 93 463.3 86.3 464.9 C79.7 466.5 73 462.4 71.4 455.8 L57 406.7 C55.1 398.7 60 390.7 68 388.7 C76 386.8 84.1 391.7 86 399.7 Z" fill="#b97f52" data-role="skin" data-lod="0"/>
  <path d="M-38.1 351.8 L-52 413 C-54.1 423.7 -64.5 430.8 -75.3 428.7 C-86.1 426.6 -93.1 416.2 -91 405.4 L-81 343.5 C-78.7 331.6 -67.3 323.9 -55.4 326.2 C-43.6 328.4 -35.8 339.9 -38.1 351.8 Z" fill="#c9ab5f" data-role="shirt" data-lod="0"/>
  <path d="M-57 406.7 L-71.4 455.8 C-73 462.4 -79.7 466.5 -86.3 464.9 C-93 463.3 -97.1 456.6 -95.5 450 L-86 399.7 C-84.1 391.7 -76 386.8 -68 388.7 C-60 390.7 -55.1 398.7 -57 406.7 Z" fill="#b97f52" data-role="skin" data-lod="0"/>
  <path d="M53.6 413.2 Q53.6 417.1 57.6 417.1 L85.4 417.1 Q89.4 417.1 89.4 413.2 L89.4 409.2 Q89.4 405.2 85.4 405.2 L57.6 405.2 Q53.6 405.2 53.6 409.2 Z M-53.6 413.2 Q-53.6 417.1 -57.6 417.1 L-85.4 417.1 Q-89.4 417.1 -89.4 413.2 L-89.4 409.2 Q-89.4 405.2 -85.4 405.2 L-57.6 405.2 Q-53.6 405.2 -53.6 409.2 Z" fill="#bb973b" data-role="shirt_dark" data-lod="1"/>
  <circle cx="84.4" cy="464.8" r="20.9" fill="#b97f52" data-role="skin" data-lod="0"/>
  <circle cx="-84.4" cy="464.8" r="20.9" fill="#b97f52" data-role="skin" data-lod="0"/>
  <ellipse cx="0" cy="240.3" rx="83.4" ry="89.4" fill="#b97f52" data-role="skin" data-lod="0"/>
  <ellipse cx="-81.8" cy="242.1" rx="12.5" ry="17.9" fill="#b97f52" data-role="skin" data-lod="0"/>
  <ellipse cx="81.8" cy="242.1" rx="12.5" ry="17.9" fill="#b97f52" data-role="skin" data-lod="0"/>
  <path d="M-79.3 217.2 Q-85.3 220.9 -82.6 212.4 L-81.7 209.4 Q-79 200.9 -74.6 193.1 L-73.1 190.6 Q-68.7 182.8 -62.7 176.2 L-60.9 174.3 Q-54.9 167.8 -47.5 162.7 L-45.6 161.4 Q-38.2 156.4 -29.9 153.2 L-28 152.5 Q-19.6 149.3 -10.7 148.2 L-8.9 148 Q0 146.9 8.9 148 L10.7 148.2 Q19.6 149.3 28 152.5 L29.9 153.2 Q38.2 156.4 45.6 161.4 L47.5 162.7 Q54.9 167.8 60.9 174.3 L62.7 176.2 Q68.7 182.8 73.1 190.6 L74.6 193.1 Q79 200.9 81.7 209.4 L82.6 212.4 Q85.3 220.9 78.5 217.2 L78.5 217.2 Q71.7 213.5 63.3 210.6 L41.8 203.1 Q33.4 200.1 24.5 199.2 L-16.1 194.8 Q-25 193.9 -33.7 195.9 L-43 198.1 Q-51.7 200.1 -59.3 204.8 L-65.8 208.8 Q-73.4 213.5 -79.3 217.2 Z" fill="#1f1a17" data-role="hair" data-lod="0"/>
  <ellipse cx="-25.9" cy="233.2" rx="14.2" ry="22.3" fill="#ffffff" data-lod="0" data-tag="eye"/>
  <line x1="-25.9" y1="233.4" x2="-25.9" y2="235" stroke="#23262e" stroke-width="16.3" stroke-linecap="round" data-lod="0" data-tag="pupil"/>
  <ellipse cx="25.9" cy="233.2" rx="14.2" ry="22.3" fill="#ffffff" data-lod="0" data-tag="eye"/>
  <line x1="25.9" y1="233.4" x2="25.9" y2="235" stroke="#23262e" stroke-width="16.3" stroke-linecap="round" data-lod="0" data-tag="pupil"/>
  <path d="M-9.6 204.8 Q-25.9 198.4 -42.2 199.9 M9.6 204.8 Q25.9 198.4 42.2 199.9" fill="none" stroke="#161210" stroke-width="8.4" stroke-linecap="round" stroke-linejoin="round" data-stroke-role="hair_dark" data-lod="0" data-tag="brow"/>
  <ellipse cx="0" cy="253.8" rx="5.4" ry="7.6" fill="#b27545" data-role="skin_dark" data-lod="1" data-tag="nose"/>
  <path d="M-17.5 281.5 Q0 297.3 17.5 281.5" fill="none" stroke="#23262e" stroke-width="7.4" stroke-linecap="round" stroke-linejoin="round" data-lod="0" data-tag="mouth"/>
  <path d="M-83.4 184.7 C-83.4 184.7 -86.4 159.2 -81.4 149 C-76.5 138.7 -67.2 128.8 -53.6 123.2 C-40.1 117.5 -17.9 115.2 0 115.2 C17.9 115.2 40.1 117.5 53.6 123.2 C67.2 128.8 76.5 138.7 81.4 149 C86.4 159.2 83.4 184.7 83.4 184.7 C83.4 184.7 -83.4 184.7 -83.4 184.7 Z" fill="#8d7a3e" data-role="accent" data-lod="0"/>
  <rect x="-83.4" y="166.8" width="166.8" height="25.8" rx="5" fill="#776632" data-role="accent_dark" data-lod="0"/>
  <ellipse cx="0" cy="190.7" rx="65.5" ry="8.9" fill="#26262b" data-lod="0"/>
  <path d="M-9.9 169.8 Q-9.9 166.8 -7 166.8 L7 166.8 Q9.9 166.8 9.9 169.8 L9.9 176.8 Q9.9 179.8 7.7 181.8 L2.2 186.7 Q0 188.7 -2.2 186.7 L-7.7 181.8 Q-9.9 179.8 -9.9 176.8 Z" fill="#e8b93a" data-lod="0"/>
</svg>
